<svg xmlns="http://www.w3.org/2000/svg" width="25" height="25" viewBox="-455 257 48 48"><path d="M-430.938 256.987c13.227 0 23.95 10.723 23.95 23.95 0 13.227-10.723 23.95-23.95 23.95-13.227 0-23.95-10.723-23.95-23.95 0-13.227 10.723-23.95 23.95-23.95zm9.53 11.726h-19.06a2.689 2.689 0 00-2.687 2.69v19.07a2.69 2.69 0 002.688 2.69h19.06a2.69 2.69 0 002.688-2.69v-19.07a2.688 2.688 0 00-2.687-2.69zm-9.543 7.53a4.679 4.679 0 014.677 4.68 4.679 4.679 0 11-9.358 0 4.68 4.68 0 014.68-4.68zm9.37 13.08c0 .54-.436.98-.976.98h-16.78a.978.978 0 01-.976-.98V279.08h2.123a7.503 7.503 0 007.275 9.335 7.502 7.502 0 007.274-9.334h2.06v10.244zm.064-14.093c0 .54-.438.978-.977.978h-2.775a.977.977 0 01-.977-.978v-2.777c0-.54.438-.978.977-.978h2.775c.54 0 .977.438.977.978v2.777z" fill="#525252"/></svg>